<?xml version="1.0" encoding="UTF-8"?>
<svg version="1.1" xmlns="http://www.w3.org/2000/svg" width="195" height="166">
<path d="M0 0 C1.89453125 1.21484375 1.89453125 1.21484375 3.8125 2.9375 C17.42129644 14.03113934 34.46444708 21.43009942 51.93359375 23.48046875 C54.52675322 24.13243512 55.35620461 24.90191098 57 27 C57.38818359 29.30224609 57.38818359 29.30224609 57.3984375 32.0234375 C57.40464111 33.03390137 57.41084473 34.04436523 57.41723633 35.08544922 C57.40329834 36.17100098 57.38936035 37.25655273 57.375 38.375 C57.36557373 39.49535645 57.35614746 40.61571289 57.34643555 41.77001953 C56.77129784 74.13812782 48.27856881 109.15500704 24.5078125 132.44140625 C19.50261731 136.83023467 14.27526282 140.17101322 8.3125 143.0625 C7.70712402 143.36188477 7.10174805 143.66126953 6.47802734 143.96972656 C1.34399258 146.2926304 -3.59036927 147.09457976 -8.97045898 145.36743164 C-10.99913252 144.50161147 -12.92975769 143.53952986 -14.875 142.5 C-15.57262451 142.13471191 -16.27024902 141.76942383 -16.98901367 141.39306641 C-37.58075671 130.30685532 -49.10173437 110.7923784 -55.91015625 88.96875 C-60.71153394 72.0075942 -63.0621968 54.72975575 -63.375 37.125 C-63.40110352 36.27429932 -63.42720703 35.42359863 -63.45410156 34.54711914 C-63.46417526 30.98930408 -63.39561731 28.67788971 -61.58203125 25.5703125 C-57.71554162 23.21883166 -53.71953004 22.60210981 -49.3125 21.75 C-33.52930483 18.32431685 -20.89382021 11.5612636 -8 2 C-4.74642896 -0.16904736 -3.77084061 -0.45619664 0 0 Z " fill="#366125" transform="translate(100,20)"/>
<path d="M0 0 C4.70588235 0.70588235 4.70588235 0.70588235 6 2 C6.20468263 3.42742364 6.34784512 4.86375556 6.46484375 6.30102539 C6.54162354 7.21610367 6.61840332 8.13118195 6.69750977 9.07398987 C6.77670654 10.07179977 6.85590332 11.06960968 6.9375 12.09765625 C7.06499634 13.63189491 7.06499634 13.63189491 7.19506836 15.1971283 C7.46764838 18.48524994 7.73412286 21.77383013 8 25.0625 C8.26684774 28.32608637 8.53499991 31.58955726 8.80493164 34.85289001 C8.97280386 36.88622243 9.13875145 38.91971495 9.30249023 40.9533844 C9.74253229 46.324362 10.28780023 51.65810784 11 57 C14.11246383 48.23662848 16.74241033 39.56525194 18.65527344 30.46118164 C19.79622386 25.20377614 19.79622386 25.20377614 22 23 C24.625 22.875 24.625 22.875 27 23 C29.6802653 27.75991092 30.80902266 32.06573259 31.6875 37.375 C31.81705078 38.11105469 31.94660156 38.84710938 32.08007812 39.60546875 C32.39508916 41.40219837 32.69872815 43.20091563 33 45 C33.66 45 34.32 45 35 45 C35.66 43.35 36.32 41.7 37 40 C40.3 40 43.6 40 47 40 C47 41.98 47 43.96 47 46 C45.87078125 46.05994141 45.87078125 46.05994141 44.71875 46.12109375 C41.74555898 46.7742672 41.74555898 46.7742672 40.15625 49.72265625 C39.05104669 51.95130914 37.94688173 54.18047725 36.84375 56.41015625 C36.2353125 57.26480469 35.626875 58.11945313 35 59 C32.28125 59.37109375 32.28125 59.37109375 30 59 C26.57242276 52.92384035 25 46.94801054 25 40 C24.34 40 23.68 40 23 40 C22.9175 41.010625 22.835 42.02125 22.75 43.0625 C21.51444098 52.82684834 18.23805703 62.41689408 15.375 71.8125 C15.16907227 72.50021484 14.96314453 73.18792969 14.75097656 73.89648438 C13.82904411 76.85802429 13.22632943 78.77367057 11 81 C9.68 81 8.36 81 7 81 C4.48452453 77.22678679 4.34410932 73.8104599 3.9296875 69.4140625 C3.80075607 68.1349147 3.80075607 68.1349147 3.66921997 66.82992554 C3.48879046 65.01966765 3.31254027 63.2089891 3.14013672 61.39794922 C2.87920958 58.66902617 2.60282438 55.94201182 2.32421875 53.21484375 C1.38519822 43.7747388 0.70456876 34.49537896 1 25 C0.34 25 -0.32 25 -1 25 C-1.19251343 26.530802 -1.19251343 26.530802 -1.38891602 28.0925293 C-2.33838667 34.16375495 -4.18250049 39.93247508 -5.9375 45.8125 C-6.29779297 47.05193359 -6.65808594 48.29136719 -7.02929688 49.56835938 C-7.37927734 50.74849609 -7.72925781 51.92863281 -8.08984375 53.14453125 C-8.56732056 54.75871948 -8.56732056 54.75871948 -9.05444336 56.40551758 C-10 59 -10 59 -12 61 C-14.4375 61.125 -14.4375 61.125 -17 60 C-18.26711095 57.27083796 -19.15721906 54.85688454 -20 52 C-20.55857002 50.33201212 -21.12098024 48.66530459 -21.6875 47 C-22.12652414 45.66716774 -22.56459142 44.33401777 -23 43 C-23.433125 43.66 -23.86625 44.32 -24.3125 45 C-28.51781411 48.12953609 -32.92749266 47.31484528 -38 47 C-38 44.69 -38 42.38 -38 40 C-36.4840625 40.0309375 -36.4840625 40.0309375 -34.9375 40.0625 C-32.01200552 39.69233539 -31.07799324 39.07980003 -28.9765625 36.9296875 C-27.23720502 34.66497307 -25.58047491 32.37791817 -24 30 C-22.1328125 30.2265625 -22.1328125 30.2265625 -20 31 C-18.8046875 32.9609375 -18.8046875 32.9609375 -17.875 35.375 C-16.74558754 38.24053409 -15.72920134 40.40619799 -14 43 C-10.0909761 31.65953507 -6.54379686 20.25280555 -3.27319336 8.7109375 C-2.99096924 7.72222656 -2.70874512 6.73351563 -2.41796875 5.71484375 C-2.16813232 4.82917725 -1.9182959 3.94351074 -1.66088867 3.03100586 C-1 1 -1 1 0 0 Z " fill="#F6F8F7" transform="translate(93,47)"/>
<path d="M0 0 C5.09872936 1.59335293 8.87396224 4.73355344 13 8 C13.82886719 8.63679687 14.65773437 9.27359375 15.51171875 9.9296875 C28.32045421 20.58687713 36.09067602 38.43899565 37.65380859 54.75097656 C38.66109498 67.83640158 36.92882844 81.14234312 31 93 C25.72727273 90.63636364 25.72727273 90.63636364 24 88 C24.4864278 83.28049222 25.47977116 78.73836634 26.5625 74.125 C29.83010052 58.94026816 27.35334825 43.39391448 19.17578125 30.015625 C12.16985745 20.05042101 4.48245451 13.16614971 -6 7 C-4.02 4.69 -2.04 2.38 0 0 Z " fill="#949113" transform="translate(157,0)"/>
<path d="M0 0 C3.7952131 1.49097658 5.61042731 3.75700849 8 7 C7.14277344 7.56847656 6.28554688 8.13695312 5.40234375 8.72265625 C-10.03697162 19.08627976 -19.63581535 30.86908963 -24.6171875 49.28125 C-26.33182355 61.45866524 -25.50939709 73.57071086 -21.2265625 85.078125 C-21 87 -21 87 -22.14453125 88.703125 C-22.69496094 89.21359375 -23.24539062 89.7240625 -23.8125 90.25 C-24.62654297 91.03117187 -24.62654297 91.03117187 -25.45703125 91.828125 C-27 93 -27 93 -29 93 C-29.81627446 90.60539412 -30.62811645 88.20943474 -31.4375 85.8125 C-31.66759766 85.13896484 -31.89769531 84.46542969 -32.13476562 83.77148438 C-38.11877566 65.99290383 -36.06672394 46.53830653 -28.25 29.6875 C-21.65073684 17.3346079 -11.89956169 7.27195437 0 0 Z " fill="#02462D" transform="translate(35,0)"/>
<path d="M0 0 C7.30199262 0.59478969 12.05135862 6.86627074 16.8046875 11.91796875 C22.667616 19.04157877 26.4592288 28.80688957 27 38 C27.0825 39.175625 27.165 40.35125 27.25 41.5625 C27.1664481 48.63656057 25.93948346 57.09077482 22 63 C18.29297459 61.56502242 18.29297459 61.56502242 17.125 59.3125 C17 57 17 57 17.96875 53.83984375 C21.11659422 42.1188935 19.44038638 30.72289985 13.45703125 20.31640625 C9.76082917 14.62408588 5.68766528 10.65988896 0 7 C-0.99 6.34 -1.98 5.68 -3 5 C-1.125 1.125 -1.125 1.125 0 0 Z " fill="#C3A90A" transform="translate(147,18)"/>
<path d="M0 0 C2.24950949 1.285434 2.68794392 2.68956221 3.75 5 C3.18152344 5.4125 2.61304687 5.825 2.02734375 6.25 C-7.68635055 13.51500008 -15.25644159 21.57386008 -17.9375 33.734375 C-18.79950913 39.98394121 -18.8833651 46.33469294 -17.1875 52.4375 C-16.2739152 55.90912222 -15.88959358 57.69615583 -17.25 61 C-19.3046875 62.1328125 -19.3046875 62.1328125 -21.25 63 C-26.62276235 52.54230185 -26.89506433 40.00351522 -24.5546875 28.6171875 C-23.64121768 25.92283535 -22.58051275 23.51273306 -21.25 21 C-20.57904297 19.69675781 -20.57904297 19.69675781 -19.89453125 18.3671875 C-16.2388184 11.80062554 -8.55845084 0 0 0 Z " fill="#9C9511" transform="translate(46.25,18)"/>
<path d="M0 0 C8.41048409 11.21397879 8.95900772 27.78127022 7.3125 41.25 C4.58793103 57.41206897 4.58793103 57.41206897 0 62 C0 41.54 0 21.08 0 0 Z " fill="#B5A10D" transform="translate(187,31)"/>
<path d="M0 0 C2.97 0 5.94 0 9 0 C9.03738281 0.88300781 9.07476562 1.76601563 9.11328125 2.67578125 C9.58280604 11.24691035 10.81432913 19.03101051 13.76953125 27.1015625 C14 29 14 29 12.85546875 30.703125 C12.30503906 31.21359375 11.75460937 31.7240625 11.1875 32.25 C10.37345703 33.03117187 10.37345703 33.03117187 9.54296875 33.828125 C8 35 8 35 6 35 C5.18372554 32.60539412 4.37188355 30.20943474 3.5625 27.8125 C3.21735352 26.80219727 3.21735352 26.80219727 2.86523438 25.77148438 C0.70768675 19.36137912 -0.14644135 13.93509318 -0.0625 7.1875 C-0.05798828 6.49462891 -0.05347656 5.80175781 -0.04882812 5.08789062 C-0.03713156 3.39188932 -0.01919924 1.69593297 0 0 Z " fill="#55711F" transform="translate(0,58)"/>
<path d="M0 0 C5.1052126 1.59537894 8.86167813 4.73950398 13 8 C13.969375 8.7425 14.93875 9.485 15.9375 10.25 C18 12 18 12 19 14 C19.07116382 16.37402501 19.08409085 18.75000677 19.0625 21.125 C19.05347656 22.40632813 19.04445312 23.68765625 19.03515625 25.0078125 C19.02355469 25.99523437 19.01195312 26.98265625 19 28 C18.360625 27.360625 17.72125 26.72125 17.0625 26.0625 C16.60230469 25.60746094 16.14210937 25.15242188 15.66796875 24.68359375 C14.4416798 23.44581731 13.23921204 22.18432553 12.05078125 20.91015625 C6.59056246 15.17545608 0.83778856 10.974864 -6 7 C-4.02 4.69 -2.04 2.38 0 0 Z " fill="#03462D" transform="translate(157,0)"/>
<path d="M0 0 C0.33 0 0.66 0 1 0 C1 13.86 1 27.72 1 42 C-3.92578684 35.43228421 -4.38701983 29.1860948 -4.375 21.25 C-4.37628906 20.37053711 -4.37757812 19.49107422 -4.37890625 18.58496094 C-4.26900503 11.81354738 -3.12331666 6.07931279 0 0 Z " fill="#D6B207" transform="translate(25,39)"/>
<path d="M0 0 C6.85741277 10.28611915 5.56775103 26.34672005 3.61328125 37.98046875 C2.91780381 41.40469843 2.10459413 44.68621761 1 48 C0.67 48 0.34 48 0 48 C0 32.16 0 16.32 0 0 Z " fill="#D3B008" transform="translate(190,38)"/>
<path d="M0 0 C3.64610046 2.6606679 6.2885892 4.78000658 8 9 C8.35044976 12.77990457 8.28211162 16.52075735 8.1875 20.3125 C8.17396484 21.33923828 8.16042969 22.36597656 8.14648438 23.42382812 C8.11123883 25.94975909 8.061967 28.4746066 8 31 C5.7281497 27.59222455 4.4515982 24.18544527 3 20.375 C2.00504505 17.80352349 2.00504505 17.80352349 0 15 C-0.14221065 12.39754502 -0.18802932 9.90882316 -0.125 7.3125 C-0.11597656 6.61060547 -0.10695312 5.90871094 -0.09765625 5.18554688 C-0.07413704 3.45688475 -0.03826713 1.72839855 0 0 Z " fill="#687A1B" transform="translate(176,15)"/>
<path d="M0 0 C2.97 0 5.94 0 9 0 C10.32 3.96 11.64 7.92 13 12 C8.5078125 16.6875 8.5078125 16.6875 7 18 C6.34 18 5.68 18 5 18 C4.16112944 15.56427941 3.32873471 13.12666783 2.5 10.6875 C2.14228516 9.65206055 2.14228516 9.65206055 1.77734375 8.59570312 C0.76791737 5.61068511 0 3.17341086 0 0 Z " fill="#C4A90A" transform="translate(1,75)"/>
<path d="M0 0 C5.64560819 0.49436149 8.91007447 3.58476851 12.94921875 7.30078125 C15.90795297 11.19503905 15.80667219 14.1705139 15.3515625 18.91015625 C15.23554688 19.59980469 15.11953125 20.28945313 15 21 C12.72310093 18.80743052 10.73123431 16.64676509 8.8125 14.125 C5.58627316 10.14801597 1.321133 7.65481374 -3 5 C-1.125 1.125 -1.125 1.125 0 0 Z " fill="#06482D" transform="translate(147,18)"/>
<path d="M0 0 C5.92424835 5.77234454 5.92424835 5.77234454 6.12025452 8.94888306 C6.11803391 9.743862 6.11581329 10.53884094 6.11352539 11.35791016 C6.11341209 12.70908432 6.11341209 12.70908432 6.11329651 14.08755493 C6.10813522 15.06155243 6.10297394 16.03554993 6.09765625 17.0390625 C6.0962413 18.03505463 6.09482635 19.03104675 6.09336853 20.05722046 C6.08775936 23.24651053 6.0752053 26.43573106 6.0625 29.625 C6.05748618 31.78385315 6.05292307 33.94270741 6.04882812 36.1015625 C6.03778695 41.4010655 6.02103988 46.70052778 6 52 C4.68 51.01 3.36 50.02 2 49 C2.144375 48.46375 2.28875 47.9275 2.4375 47.375 C5.07552285 36.23668128 5.46712379 25.27077582 0.890625 14.68359375 C-0.7013686 9.88666565 -0.31355966 4.99082456 0 0 Z " fill="#8C8C14" transform="translate(162,29)"/>
<path d="M0 0 C2.5162387 1.13636587 2.82920659 2.42197726 3.9375 4.875 C3.36902344 5.2875 2.80054688 5.7 2.21484375 6.125 C-2.7178289 9.81421093 -6.84320558 13.60516629 -10.75 18.37109375 C-11.183125 18.86738281 -11.61625 19.36367188 -12.0625 19.875 C-12.3925 19.875 -12.7225 19.875 -13.0625 19.875 C-14.28410261 10.49241325 -14.28410261 10.49241325 -11.38671875 6.65625 C-9.35040696 4.89914001 -7.31051815 3.34932166 -5.0625 1.875 C-2.0625 -0.125 -2.0625 -0.125 0 0 Z " fill="#07482C" transform="translate(46.0625,18.125)"/>
<path d="M0 0 C1.23556641 0.01740234 1.23556641 0.01740234 2.49609375 0.03515625 C3.32238281 0.04417969 4.14867187 0.05320313 5 0.0625 C5.63808594 0.07410156 6.27617187 0.08570313 6.93359375 0.09765625 C6.60359375 2.73765625 6.27359375 5.37765625 5.93359375 8.09765625 C2.96359375 8.09765625 -0.00640625 8.09765625 -3.06640625 8.09765625 C-3.10882348 5.7647085 -3.10733562 3.43063058 -3.06640625 1.09765625 C-2.06640625 0.09765625 -2.06640625 0.09765625 0 0 Z " fill="#2F5D26" transform="translate(3.06640625,49.90234375)"/>
<path d="M0 0 C5.0714237 10.1428474 3.03717479 23.22486062 1 34 C0.67 34 0.34 34 0 34 C0 22.78 0 11.56 0 0 Z " fill="#EBBD03" transform="translate(192,45)"/>
<path d="M0 0 C1.984375 0.95703125 1.984375 0.95703125 4 3 C4.52039056 5.90294794 4.37530743 8.75000457 4.25 11.6875 C4.23195312 12.48478516 4.21390625 13.28207031 4.1953125 14.10351562 C4.14822247 16.06952449 4.07647899 18.03491494 4 20 C1.0571938 17.01664332 0.0480209 15.4634017 -0.390625 11.23046875 C-0.36431837 9.88225415 -0.31701804 8.53430482 -0.25 7.1875 C-0.23195312 6.49462891 -0.21390625 5.80175781 -0.1953125 5.08789062 C-0.14851064 3.39132336 -0.07677624 1.69547524 0 0 Z " fill="#386123" transform="translate(176,15)"/>
<path d="M0 0 C2.97 0 5.94 0 9 0 C9.33 1.98 9.66 3.96 10 6 C7.03 6 4.06 6 1 6 C0.67 4.02 0.34 2.04 0 0 Z " fill="#8A8B15" transform="translate(0,69)"/>
<path d="M0 0 C1.984375 1.515625 1.984375 1.515625 4 4 C4.2911521 6.73682971 4.38322418 9.03940039 4.25 11.75 C4.23195312 12.44738281 4.21390625 13.14476562 4.1953125 13.86328125 C4.14838554 15.57611539 4.07664605 17.28823824 4 19 C0.81924189 14.22886284 -0.25165051 11.57592361 -0.125 5.75 C-0.10695312 4.67234375 -0.08890625 3.5946875 -0.0703125 2.484375 C-0.04710937 1.66453125 -0.02390625 0.8446875 0 0 Z " fill="#54701E" transform="translate(162,29)"/>
<path d="M0 0 C0.55353075 12.66970387 0.55353075 12.66970387 -3 18 C-3.33 18 -3.66 18 -4 18 C-4.08119503 15.75059705 -4.13927819 13.50035129 -4.1875 11.25 C-4.22230469 9.99703125 -4.25710937 8.7440625 -4.29296875 7.453125 C-4.07788137 4.91796178 -3.54311391 0 0 0 Z " fill="#59731E" transform="translate(33,28)"/>
<path d="M0 0 C2.97 0 5.94 0 9 0 C9 3 9 3 6.625 5.6875 C4 8 4 8 2 8 C0.74335022 5.09399739 0 3.20395416 0 0 Z " fill="#D9B407" transform="translate(4,85)"/>
<path d="M0 0 C2.97 0 5.94 0 9 0 C9.33 1.65 9.66 3.3 10 5 C7.03 5 4.06 5 1 5 C0.67 3.35 0.34 1.7 0 0 Z " fill="#A89B10" transform="translate(1,75)"/>
<path d="M0 0 C2.97 0 5.94 0 9 0 C9 1.65 9 3.3 9 5 C6.03 5 3.06 5 0 5 C0 3.35 0 1.7 0 0 Z " fill="#6B7C1B" transform="translate(0,64)"/>
<path d="M0 0 C0.33 0 0.66 0 1 0 C1 5.61 1 11.22 1 17 C-0.32 16.01 -1.64 15.02 -3 14 C-2.40380045 9.13103697 -1.43023178 4.67209049 0 0 Z " fill="#7A8317" transform="translate(184,74)"/>
<path d="M0 0 C2.97 0 5.94 0 9 0 C8.67 0.99 8.34 1.98 8 3 C5.03 3 2.06 3 -1 3 C-0.67 2.01 -0.34 1.02 0 0 Z " fill="#19522A" transform="translate(1,50)"/>
<path d="M0 0 C2.97 0 5.94 0 9 0 C9 0.99 9 1.98 9 3 C6.03 3 3.06 3 0 3 C0 2.01 0 1.02 0 0 Z " fill="#466922" transform="translate(0,58)"/>
<path d="M0 0 C0.33 0 0.66 0 1 0 C3.53191489 8.78723404 3.53191489 8.78723404 2 13 C1.01 13.495 1.01 13.495 0 14 C0 9.38 0 4.76 0 0 Z " fill="#8B8C14" transform="translate(27,66)"/>
<path d="M0 0 C2.31 0 4.62 0 7 0 C5.71937515 1.7074998 4.38232443 3.37373596 3 5 C2.34 5 1.68 5 1 5 C0.67 3.35 0.34 1.7 0 0 Z " fill="#EBBD03" transform="translate(5,88)"/>
<path d="M0 0 C0.33 0 0.66 0 1 0 C1 3.96 1 7.92 1 12 C0.01 11.34 -0.98 10.68 -2 10 C-1.34 6.7 -0.68 3.4 0 0 Z " fill="#758018" transform="translate(166,68)"/>
</svg>
