<svg xmlns="http://www.w3.org/2000/svg" xmlns:xlink="http://www.w3.org/1999/xlink" viewBox="0 0 193.81 165.69"><defs><style>.cls-1,.cls-2{fill:#fff;}.cls-2{stroke:#fff;stroke-miterlimit:10;}.cls-3{fill:url(#linear-gradient);}</style><linearGradient id="linear-gradient" x1="54.37" y1="86.81" x2="139.44" y2="86.81" gradientUnits="userSpaceOnUse"><stop offset="0" stop-color="#fec700"/><stop offset="0.5" stop-color="#02462e"/></linearGradient></defs><g id="Layer_2" data-name="Layer 2"><g id="Layer_1-2" data-name="Layer 1"><path class="cls-1" d="M42.11,5.81,36.3,0A70.21,70.21,0,0,0,7,92l5.92-5.92A62.37,62.37,0,0,1,42.11,5.81Z"/><path class="cls-1" d="M49.46,21.67l-3.94-3.93A47.64,47.64,0,0,0,25.64,80.19l4-4a42.33,42.33,0,0,1,19.8-54.5Z"/><path class="cls-1" d="M151.71,5.81,157.51,0a70.24,70.24,0,0,1,29.31,92l-5.92-5.92A62.37,62.37,0,0,0,151.71,5.81Z"/><path class="cls-1" d="M144.35,21.67l3.94-3.93a47.64,47.64,0,0,1,19.88,62.45l-4-4a42.33,42.33,0,0,0-19.81-54.5Z"/><path class="cls-2" d="M156.5,50.39c0-3.41-2.35-6.22-5.35-6.54-24.89-2.63-45.2-17.71-51.9-23.22a3.61,3.61,0,0,0-4.7,0c-6.68,5.51-27,20.59-51.89,23.22-3,.32-5.3,3.13-5.35,6.54C37,72.64,40.16,148.16,95.4,165a5.11,5.11,0,0,0,3,0C153.64,148.18,156.79,72.64,156.5,50.39Z"/><path class="cls-3" d="M134.89,92.85c1.42,0,2.83,0,4.24,0a43.65,43.65,0,0,0,.31-5.14c0-.39,0-.79,0-1.18a55.86,55.86,0,0,1-6.21-.19c-4.44-.61-4.09,4.08-7.14,6.06-1.54-6.63-3.1-13-4.79-19.54-.57-2.26-1.6-3.89-4.3-3.76s-3.85,1.87-4.2,4.17c-1.21,7.92-3.91,15.45-6,23.15-1,3.61-2,7.17-3.24,11.31-2.88-19.51-3.63-38.16-5.51-57.6-.13-1.5-.06-3.27-2.3-3.47a3.58,3.58,0,0,0-4.18,2.76C87.75,64.11,83.43,78,78.67,92.6c-1.32-2.14-1.73-4.3-2.46-6.33-.84-2.33-1.54-4.73-2.57-7-1.43-3.15-3.73-3.49-6-.85a62.29,62.29,0,0,0-4.47,6.3A4.11,4.11,0,0,1,59.16,87c-1.58-.1-3.18-.1-4.78-.06,0,.28,0,.56,0,.84A42.29,42.29,0,0,0,54.7,93c2.34,0,4.69,0,7,.29,3,.35,4.89-.87,6.25-3.37.51-.94,1.17-1.8,2.14-3.25.69,4.94,2.31,8.92,3.44,13.05.21.8.33,1.63.6,2.41.77,2.26,1.35,4.83,4.43,4.9s4.06-2.43,4.73-4.88c3-11,6-21.48,9.7-32.29,1.22,7.13,1.31,13.61,2,20,1.14,10.79,2.22,21.58,3.34,32.38.29,2.5.9,4.37,3.72,4.65,2,.2,3.1-1,3.64-2.7,3.51-11.61,7.1-23.2,9.9-35,.33-1.33.74-2.64,1.28-4.56,1.32,5.2,2.48,9.83,3.67,14.46.7,2.2,1.13,5.75,4,5.92A4.27,4.27,0,0,0,128.8,103a71.45,71.45,0,0,0,4.53-8.51C133.65,93.79,133.76,92.83,134.89,92.85Z"/></g></g></svg>